<?xml version="1.0" encoding="utf-8" standalone="no"?>
<!DOCTYPE svg PUBLIC "-//W3C//DTD SVG 1.1//EN"
  "http://www.w3.org/Graphics/SVG/1.1/DTD/svg11.dtd">
<!-- Created with matplotlib (https://matplotlib.org/) -->
<svg height="324pt" version="1.1" viewBox="0 0 432 324" width="432pt" xmlns="http://www.w3.org/2000/svg" xmlns:xlink="http://www.w3.org/1999/xlink">
 <metadata>
  <rdf:RDF xmlns:cc="http://creativecommons.org/ns#" xmlns:dc="http://purl.org/dc/elements/1.1/" xmlns:rdf="http://www.w3.org/1999/02/22-rdf-syntax-ns#">
   <cc:Work>
    <dc:type rdf:resource="http://purl.org/dc/dcmitype/StillImage"/>
    <dc:date>2025-07-17T18:27:12.990220</dc:date>
    <dc:format>image/svg+xml</dc:format>
    <dc:creator>
     <cc:Agent>
      <dc:title>Matplotlib v3.3.3, https://matplotlib.org/</dc:title>
     </cc:Agent>
    </dc:creator>
   </cc:Work>
  </rdf:RDF>
 </metadata>
 <defs>
  <style type="text/css">*{stroke-linecap:butt;stroke-linejoin:round;}</style>
 </defs>
 <g id="figure_1">
  <g id="patch_1">
   <path d="M 0 324 
L 432 324 
L 432 0 
L 0 0 
z
" style="fill:#ffffff;"/>
  </g>
  <g id="axes_1">
   <g id="patch_2">
    <path d="M 54 288.36 
L 388.8 288.36 
L 388.8 38.88 
L 54 38.88 
z
" style="fill:#ffffff;"/>
   </g>
   <g id="matplotlib.axis_1">
    <g id="xtick_1">
     <g id="line2d_1">
      <defs>
       <path d="M 0 0 
L 0 3.5 
" id="m53f86e5709" style="stroke:#000000;stroke-width:0.8;"/>
      </defs>
      <g>
       <use style="stroke:#000000;stroke-width:0.8;" x="56.536364" xlink:href="#m53f86e5709" y="288.36"/>
      </g>
     </g>
     <g id="text_1">
      <!-- −5 -->
      <g transform="translate(46.216832 305.997813)scale(0.14 -0.14)">
       <defs>
        <path d="M 10.59375 35.5 
L 73.1875 35.5 
L 73.1875 27.203125 
L 10.59375 27.203125 
z
" id="DejaVuSans-8722"/>
        <path d="M 10.796875 72.90625 
L 49.515625 72.90625 
L 49.515625 64.59375 
L 19.828125 64.59375 
L 19.828125 46.734375 
Q 21.96875 47.46875 24.109375 47.828125 
Q 26.265625 48.1875 28.421875 48.1875 
Q 40.625 48.1875 47.75 41.5 
Q 54.890625 34.8125 54.890625 23.390625 
Q 54.890625 11.625 47.5625 5.09375 
Q 40.234375 -1.421875 26.90625 -1.421875 
Q 22.3125 -1.421875 17.546875 -0.640625 
Q 12.796875 0.140625 7.71875 1.703125 
L 7.71875 11.625 
Q 12.109375 9.234375 16.796875 8.0625 
Q 21.484375 6.890625 26.703125 6.890625 
Q 35.15625 6.890625 40.078125 11.328125 
Q 45.015625 15.765625 45.015625 23.390625 
Q 45.015625 31 40.078125 35.4375 
Q 35.15625 39.890625 26.703125 39.890625 
Q 22.75 39.890625 18.8125 39.015625 
Q 14.890625 38.140625 10.796875 36.28125 
z
" id="DejaVuSans-53"/>
       </defs>
       <use xlink:href="#DejaVuSans-8722"/>
       <use x="83.789062" xlink:href="#DejaVuSans-53"/>
      </g>
     </g>
    </g>
    <g id="xtick_2">
     <g id="line2d_2">
      <g>
       <use style="stroke:#000000;stroke-width:0.8;" x="119.945455" xlink:href="#m53f86e5709" y="288.36"/>
      </g>
     </g>
     <g id="text_2">
      <!-- 0 -->
      <g transform="translate(115.491705 305.997813)scale(0.14 -0.14)">
       <defs>
        <path d="M 31.78125 66.40625 
Q 24.171875 66.40625 20.328125 58.90625 
Q 16.5 51.421875 16.5 36.375 
Q 16.5 21.390625 20.328125 13.890625 
Q 24.171875 6.390625 31.78125 6.390625 
Q 39.453125 6.390625 43.28125 13.890625 
Q 47.125 21.390625 47.125 36.375 
Q 47.125 51.421875 43.28125 58.90625 
Q 39.453125 66.40625 31.78125 66.40625 
z
M 31.78125 74.21875 
Q 44.046875 74.21875 50.515625 64.515625 
Q 56.984375 54.828125 56.984375 36.375 
Q 56.984375 17.96875 50.515625 8.265625 
Q 44.046875 -1.421875 31.78125 -1.421875 
Q 19.53125 -1.421875 13.0625 8.265625 
Q 6.59375 17.96875 6.59375 36.375 
Q 6.59375 54.828125 13.0625 64.515625 
Q 19.53125 74.21875 31.78125 74.21875 
z
" id="DejaVuSans-48"/>
       </defs>
       <use xlink:href="#DejaVuSans-48"/>
      </g>
     </g>
    </g>
    <g id="xtick_3">
     <g id="line2d_3">
      <g>
       <use style="stroke:#000000;stroke-width:0.8;" x="183.354545" xlink:href="#m53f86e5709" y="288.36"/>
      </g>
     </g>
     <g id="text_3">
      <!-- 5 -->
      <g transform="translate(178.900795 305.997813)scale(0.14 -0.14)">
       <use xlink:href="#DejaVuSans-53"/>
      </g>
     </g>
    </g>
    <g id="xtick_4">
     <g id="line2d_4">
      <g>
       <use style="stroke:#000000;stroke-width:0.8;" x="246.763636" xlink:href="#m53f86e5709" y="288.36"/>
      </g>
     </g>
     <g id="text_4">
      <!-- 10 -->
      <g transform="translate(237.856136 305.997813)scale(0.14 -0.14)">
       <defs>
        <path d="M 12.40625 8.296875 
L 28.515625 8.296875 
L 28.515625 63.921875 
L 10.984375 60.40625 
L 10.984375 69.390625 
L 28.421875 72.90625 
L 38.28125 72.90625 
L 38.28125 8.296875 
L 54.390625 8.296875 
L 54.390625 0 
L 12.40625 0 
z
" id="DejaVuSans-49"/>
       </defs>
       <use xlink:href="#DejaVuSans-49"/>
       <use x="63.623047" xlink:href="#DejaVuSans-48"/>
      </g>
     </g>
    </g>
    <g id="xtick_5">
     <g id="line2d_5">
      <g>
       <use style="stroke:#000000;stroke-width:0.8;" x="310.172727" xlink:href="#m53f86e5709" y="288.36"/>
      </g>
     </g>
     <g id="text_5">
      <!-- 15 -->
      <g transform="translate(301.265227 305.997813)scale(0.14 -0.14)">
       <use xlink:href="#DejaVuSans-49"/>
       <use x="63.623047" xlink:href="#DejaVuSans-53"/>
      </g>
     </g>
    </g>
    <g id="xtick_6">
     <g id="line2d_6">
      <g>
       <use style="stroke:#000000;stroke-width:0.8;" x="373.581818" xlink:href="#m53f86e5709" y="288.36"/>
      </g>
     </g>
     <g id="text_6">
      <!-- 20 -->
      <g transform="translate(364.674318 305.997813)scale(0.14 -0.14)">
       <defs>
        <path d="M 19.1875 8.296875 
L 53.609375 8.296875 
L 53.609375 0 
L 7.328125 0 
L 7.328125 8.296875 
Q 12.9375 14.109375 22.625 23.890625 
Q 32.328125 33.6875 34.8125 36.53125 
Q 39.546875 41.84375 41.421875 45.53125 
Q 43.3125 49.21875 43.3125 52.78125 
Q 43.3125 58.59375 39.234375 62.25 
Q 35.15625 65.921875 28.609375 65.921875 
Q 23.96875 65.921875 18.8125 64.3125 
Q 13.671875 62.703125 7.8125 59.421875 
L 7.8125 69.390625 
Q 13.765625 71.78125 18.9375 73 
Q 24.125 74.21875 28.421875 74.21875 
Q 39.75 74.21875 46.484375 68.546875 
Q 53.21875 62.890625 53.21875 53.421875 
Q 53.21875 48.921875 51.53125 44.890625 
Q 49.859375 40.875 45.40625 35.40625 
Q 44.1875 33.984375 37.640625 27.21875 
Q 31.109375 20.453125 19.1875 8.296875 
z
" id="DejaVuSans-50"/>
       </defs>
       <use xlink:href="#DejaVuSans-50"/>
       <use x="63.623047" xlink:href="#DejaVuSans-48"/>
      </g>
     </g>
    </g>
    <g id="text_7">
     <!-- m -->
     <g transform="translate(214.581563 323.547188)scale(0.14 -0.14)">
      <defs>
       <path d="M 52 44.1875 
Q 55.375 50.25 60.0625 53.125 
Q 64.75 56 71.09375 56 
Q 79.640625 56 84.28125 50.015625 
Q 88.921875 44.046875 88.921875 33.015625 
L 88.921875 0 
L 79.890625 0 
L 79.890625 32.71875 
Q 79.890625 40.578125 77.09375 44.375 
Q 74.3125 48.1875 68.609375 48.1875 
Q 61.625 48.1875 57.5625 43.546875 
Q 53.515625 38.921875 53.515625 30.90625 
L 53.515625 0 
L 44.484375 0 
L 44.484375 32.71875 
Q 44.484375 40.625 41.703125 44.40625 
Q 38.921875 48.1875 33.109375 48.1875 
Q 26.21875 48.1875 22.15625 43.53125 
Q 18.109375 38.875 18.109375 30.90625 
L 18.109375 0 
L 9.078125 0 
L 9.078125 54.6875 
L 18.109375 54.6875 
L 18.109375 46.1875 
Q 21.1875 51.21875 25.484375 53.609375 
Q 29.78125 56 35.6875 56 
Q 41.65625 56 45.828125 52.96875 
Q 50 49.953125 52 44.1875 
z
" id="DejaVuSans-109"/>
      </defs>
      <use xlink:href="#DejaVuSans-109"/>
     </g>
    </g>
   </g>
   <g id="matplotlib.axis_2">
    <g id="ytick_1">
     <g id="line2d_7">
      <defs>
       <path d="M 0 0 
L 3.5 0 
" id="md62e312fdd" style="stroke:#000000;stroke-width:0.8;"/>
      </defs>
      <g>
       <use style="stroke:#000000;stroke-width:0.8;" x="54" xlink:href="#md62e312fdd" y="255.842112"/>
      </g>
     </g>
     <g id="text_8">
      <!-- 1 -->
      <g transform="translate(41.5925 261.161018)scale(0.14 -0.14)">
       <use xlink:href="#DejaVuSans-49"/>
      </g>
     </g>
    </g>
    <g id="ytick_2">
     <g id="line2d_8">
      <g>
       <use style="stroke:#000000;stroke-width:0.8;" x="54" xlink:href="#md62e312fdd" y="213.486335"/>
      </g>
     </g>
     <g id="text_9">
      <!-- 2 -->
      <g transform="translate(41.5925 218.805242)scale(0.14 -0.14)">
       <use xlink:href="#DejaVuSans-50"/>
      </g>
     </g>
    </g>
    <g id="ytick_3">
     <g id="line2d_9">
      <g>
       <use style="stroke:#000000;stroke-width:0.8;" x="54" xlink:href="#md62e312fdd" y="171.130559"/>
      </g>
     </g>
     <g id="text_10">
      <!-- 3 -->
      <g transform="translate(41.5925 176.449465)scale(0.14 -0.14)">
       <defs>
        <path d="M 40.578125 39.3125 
Q 47.65625 37.796875 51.625 33 
Q 55.609375 28.21875 55.609375 21.1875 
Q 55.609375 10.40625 48.1875 4.484375 
Q 40.765625 -1.421875 27.09375 -1.421875 
Q 22.515625 -1.421875 17.65625 -0.515625 
Q 12.796875 0.390625 7.625 2.203125 
L 7.625 11.71875 
Q 11.71875 9.328125 16.59375 8.109375 
Q 21.484375 6.890625 26.8125 6.890625 
Q 36.078125 6.890625 40.9375 10.546875 
Q 45.796875 14.203125 45.796875 21.1875 
Q 45.796875 27.640625 41.28125 31.265625 
Q 36.765625 34.90625 28.71875 34.90625 
L 20.21875 34.90625 
L 20.21875 43.015625 
L 29.109375 43.015625 
Q 36.375 43.015625 40.234375 45.921875 
Q 44.09375 48.828125 44.09375 54.296875 
Q 44.09375 59.90625 40.109375 62.90625 
Q 36.140625 65.921875 28.71875 65.921875 
Q 24.65625 65.921875 20.015625 65.03125 
Q 15.375 64.15625 9.8125 62.3125 
L 9.8125 71.09375 
Q 15.4375 72.65625 20.34375 73.4375 
Q 25.25 74.21875 29.59375 74.21875 
Q 40.828125 74.21875 47.359375 69.109375 
Q 53.90625 64.015625 53.90625 55.328125 
Q 53.90625 49.265625 50.4375 45.09375 
Q 46.96875 40.921875 40.578125 39.3125 
z
" id="DejaVuSans-51"/>
       </defs>
       <use xlink:href="#DejaVuSans-51"/>
      </g>
     </g>
    </g>
    <g id="ytick_4">
     <g id="line2d_10">
      <g>
       <use style="stroke:#000000;stroke-width:0.8;" x="54" xlink:href="#md62e312fdd" y="128.774782"/>
      </g>
     </g>
     <g id="text_11">
      <!-- 4 -->
      <g transform="translate(41.5925 134.093689)scale(0.14 -0.14)">
       <defs>
        <path d="M 37.796875 64.3125 
L 12.890625 25.390625 
L 37.796875 25.390625 
z
M 35.203125 72.90625 
L 47.609375 72.90625 
L 47.609375 25.390625 
L 58.015625 25.390625 
L 58.015625 17.1875 
L 47.609375 17.1875 
L 47.609375 0 
L 37.796875 0 
L 37.796875 17.1875 
L 4.890625 17.1875 
L 4.890625 26.703125 
z
" id="DejaVuSans-52"/>
       </defs>
       <use xlink:href="#DejaVuSans-52"/>
      </g>
     </g>
    </g>
    <g id="ytick_5">
     <g id="line2d_11">
      <g>
       <use style="stroke:#000000;stroke-width:0.8;" x="54" xlink:href="#md62e312fdd" y="86.419006"/>
      </g>
     </g>
     <g id="text_12">
      <!-- 5 -->
      <g transform="translate(41.5925 91.737912)scale(0.14 -0.14)">
       <use xlink:href="#DejaVuSans-53"/>
      </g>
     </g>
    </g>
    <g id="ytick_6">
     <g id="line2d_12">
      <g>
       <use style="stroke:#000000;stroke-width:0.8;" x="54" xlink:href="#md62e312fdd" y="44.06323"/>
      </g>
     </g>
     <g id="text_13">
      <!-- 6 -->
      <g transform="translate(41.5925 49.382136)scale(0.14 -0.14)">
       <defs>
        <path d="M 33.015625 40.375 
Q 26.375 40.375 22.484375 35.828125 
Q 18.609375 31.296875 18.609375 23.390625 
Q 18.609375 15.53125 22.484375 10.953125 
Q 26.375 6.390625 33.015625 6.390625 
Q 39.65625 6.390625 43.53125 10.953125 
Q 47.40625 15.53125 47.40625 23.390625 
Q 47.40625 31.296875 43.53125 35.828125 
Q 39.65625 40.375 33.015625 40.375 
z
M 52.59375 71.296875 
L 52.59375 62.3125 
Q 48.875 64.0625 45.09375 64.984375 
Q 41.3125 65.921875 37.59375 65.921875 
Q 27.828125 65.921875 22.671875 59.328125 
Q 17.53125 52.734375 16.796875 39.40625 
Q 19.671875 43.65625 24.015625 45.921875 
Q 28.375 48.1875 33.59375 48.1875 
Q 44.578125 48.1875 50.953125 41.515625 
Q 57.328125 34.859375 57.328125 23.390625 
Q 57.328125 12.15625 50.6875 5.359375 
Q 44.046875 -1.421875 33.015625 -1.421875 
Q 20.359375 -1.421875 13.671875 8.265625 
Q 6.984375 17.96875 6.984375 36.375 
Q 6.984375 53.65625 15.1875 63.9375 
Q 23.390625 74.21875 37.203125 74.21875 
Q 40.921875 74.21875 44.703125 73.484375 
Q 48.484375 72.75 52.59375 71.296875 
z
" id="DejaVuSans-54"/>
       </defs>
       <use xlink:href="#DejaVuSans-54"/>
      </g>
     </g>
    </g>
    <g id="text_14">
     <!-- E -->
     <g transform="translate(34.680937 168.043125)rotate(-90)scale(0.14 -0.14)">
      <defs>
       <path d="M 9.8125 72.90625 
L 55.90625 72.90625 
L 55.90625 64.59375 
L 19.671875 64.59375 
L 19.671875 43.015625 
L 54.390625 43.015625 
L 54.390625 34.71875 
L 19.671875 34.71875 
L 19.671875 8.296875 
L 56.78125 8.296875 
L 56.78125 0 
L 9.8125 0 
z
" id="DejaVuSans-69"/>
      </defs>
      <use xlink:href="#DejaVuSans-69"/>
     </g>
    </g>
   </g>
   <g id="line2d_13">
    <defs>
     <path d="M 3 0 
L -3 -0 
" id="mafe27268b6" style="stroke:#000000;"/>
    </defs>
    <g clip-path="url(#p92b6731451)">
     <use style="stroke:#000000;" x="69.218182" xlink:href="#mafe27268b6" y="65.174453"/>
     <use style="stroke:#000000;" x="81.9" xlink:href="#mafe27268b6" y="107.53919"/>
     <use style="stroke:#000000;" x="81.9" xlink:href="#mafe27268b6" y="65.216908"/>
     <use style="stroke:#000000;" x="94.581818" xlink:href="#mafe27268b6" y="149.997747"/>
     <use style="stroke:#000000;" x="94.581818" xlink:href="#mafe27268b6" y="107.934869"/>
     <use style="stroke:#000000;" x="94.581818" xlink:href="#mafe27268b6" y="66.088652"/>
     <use style="stroke:#000000;" x="107.263636" xlink:href="#mafe27268b6" y="193.496769"/>
     <use style="stroke:#000000;" x="107.263636" xlink:href="#mafe27268b6" y="153.400644"/>
     <use style="stroke:#000000;" x="107.263636" xlink:href="#mafe27268b6" y="113.767128"/>
     <use style="stroke:#000000;" x="107.263636" xlink:href="#mafe27268b6" y="73.929791"/>
     <use style="stroke:#000000;" x="119.945455" xlink:href="#mafe27268b6" y="251.287614"/>
     <use style="stroke:#000000;" x="119.945455" xlink:href="#mafe27268b6" y="212.387474"/>
     <use style="stroke:#000000;" x="119.945455" xlink:href="#mafe27268b6" y="170.101774"/>
     <use style="stroke:#000000;" x="119.945455" xlink:href="#mafe27268b6" y="127.521059"/>
     <use style="stroke:#000000;" x="119.945455" xlink:href="#mafe27268b6" y="85.009739"/>
     <use style="stroke:#000000;" x="132.627273" xlink:href="#mafe27268b6" y="267.176261"/>
     <use style="stroke:#000000;" x="132.627273" xlink:href="#mafe27268b6" y="222.977231"/>
     <use style="stroke:#000000;" x="132.627273" xlink:href="#mafe27268b6" y="179.426519"/>
     <use style="stroke:#000000;" x="132.627273" xlink:href="#mafe27268b6" y="136.182955"/>
     <use style="stroke:#000000;" x="132.627273" xlink:href="#mafe27268b6" y="93.132711"/>
     <use style="stroke:#000000;" x="132.627273" xlink:href="#mafe27268b6" y="50.22"/>
     <use style="stroke:#000000;" x="145.309091" xlink:href="#mafe27268b6" y="274.381444"/>
     <use style="stroke:#000000;" x="145.309091" xlink:href="#mafe27268b6" y="230.148974"/>
     <use style="stroke:#000000;" x="145.309091" xlink:href="#mafe27268b6" y="186.319373"/>
     <use style="stroke:#000000;" x="145.309091" xlink:href="#mafe27268b6" y="142.762016"/>
     <use style="stroke:#000000;" x="145.309091" xlink:href="#mafe27268b6" y="99.40742"/>
     <use style="stroke:#000000;" x="145.309091" xlink:href="#mafe27268b6" y="56.211597"/>
     <use style="stroke:#000000;" x="157.990909" xlink:href="#mafe27268b6" y="276.529995"/>
     <use style="stroke:#000000;" x="157.990909" xlink:href="#mafe27268b6" y="233.458833"/>
     <use style="stroke:#000000;" x="157.990909" xlink:href="#mafe27268b6" y="190.301145"/>
     <use style="stroke:#000000;" x="157.990909" xlink:href="#mafe27268b6" y="147.12753"/>
     <use style="stroke:#000000;" x="157.990909" xlink:href="#mafe27268b6" y="103.974189"/>
     <use style="stroke:#000000;" x="157.990909" xlink:href="#mafe27268b6" y="60.859645"/>
     <use style="stroke:#000000;" x="170.672727" xlink:href="#mafe27268b6" y="276.954584"/>
     <use style="stroke:#000000;" x="170.672727" xlink:href="#mafe27268b6" y="234.444036"/>
     <use style="stroke:#000000;" x="170.672727" xlink:href="#mafe27268b6" y="191.844875"/>
     <use style="stroke:#000000;" x="170.672727" xlink:href="#mafe27268b6" y="149.169873"/>
     <use style="stroke:#000000;" x="170.672727" xlink:href="#mafe27268b6" y="106.435898"/>
     <use style="stroke:#000000;" x="170.672727" xlink:href="#mafe27268b6" y="63.659712"/>
     <use style="stroke:#000000;" x="183.354545" xlink:href="#mafe27268b6" y="277.013255"/>
     <use style="stroke:#000000;" x="183.354545" xlink:href="#mafe27268b6" y="234.635054"/>
     <use style="stroke:#000000;" x="183.354545" xlink:href="#mafe27268b6" y="192.232871"/>
     <use style="stroke:#000000;" x="183.354545" xlink:href="#mafe27268b6" y="149.800534"/>
     <use style="stroke:#000000;" x="183.354545" xlink:href="#mafe27268b6" y="107.334529"/>
     <use style="stroke:#000000;" x="183.354545" xlink:href="#mafe27268b6" y="64.833896"/>
     <use style="stroke:#000000;" x="196.036364" xlink:href="#mafe27268b6" y="277.01943"/>
     <use style="stroke:#000000;" x="196.036364" xlink:href="#mafe27268b6" y="234.661208"/>
     <use style="stroke:#000000;" x="196.036364" xlink:href="#mafe27268b6" y="192.299148"/>
     <use style="stroke:#000000;" x="196.036364" xlink:href="#mafe27268b6" y="149.930841"/>
     <use style="stroke:#000000;" x="196.036364" xlink:href="#mafe27268b6" y="107.553697"/>
     <use style="stroke:#000000;" x="196.036364" xlink:href="#mafe27268b6" y="65.165204"/>
     <use style="stroke:#000000;" x="208.718182" xlink:href="#mafe27268b6" y="277.019959"/>
     <use style="stroke:#000000;" x="208.718182" xlink:href="#mafe27268b6" y="234.663967"/>
     <use style="stroke:#000000;" x="208.718182" xlink:href="#mafe27268b6" y="192.30753"/>
     <use style="stroke:#000000;" x="208.718182" xlink:href="#mafe27268b6" y="149.950211"/>
     <use style="stroke:#000000;" x="208.718182" xlink:href="#mafe27268b6" y="107.591403"/>
     <use style="stroke:#000000;" x="208.718182" xlink:href="#mafe27268b6" y="65.230335"/>
     <use style="stroke:#000000;" x="221.4" xlink:href="#mafe27268b6" y="277.019997"/>
     <use style="stroke:#000000;" x="221.4" xlink:href="#mafe27268b6" y="234.664205"/>
     <use style="stroke:#000000;" x="221.4" xlink:href="#mafe27268b6" y="192.308372"/>
     <use style="stroke:#000000;" x="221.4" xlink:href="#mafe27268b6" y="149.952443"/>
     <use style="stroke:#000000;" x="221.4" xlink:href="#mafe27268b6" y="107.596328"/>
     <use style="stroke:#000000;" x="221.4" xlink:href="#mafe27268b6" y="65.239891"/>
     <use style="stroke:#000000;" x="234.081818" xlink:href="#mafe27268b6" y="277.02"/>
     <use style="stroke:#000000;" x="234.081818" xlink:href="#mafe27268b6" y="234.664222"/>
     <use style="stroke:#000000;" x="234.081818" xlink:href="#mafe27268b6" y="192.308442"/>
     <use style="stroke:#000000;" x="234.081818" xlink:href="#mafe27268b6" y="149.952653"/>
     <use style="stroke:#000000;" x="234.081818" xlink:href="#mafe27268b6" y="107.596845"/>
     <use style="stroke:#000000;" x="234.081818" xlink:href="#mafe27268b6" y="65.241002"/>
     <use style="stroke:#000000;" x="246.763636" xlink:href="#mafe27268b6" y="277.02"/>
     <use style="stroke:#000000;" x="246.763636" xlink:href="#mafe27268b6" y="234.664224"/>
     <use style="stroke:#000000;" x="246.763636" xlink:href="#mafe27268b6" y="192.308447"/>
     <use style="stroke:#000000;" x="246.763636" xlink:href="#mafe27268b6" y="149.952669"/>
     <use style="stroke:#000000;" x="246.763636" xlink:href="#mafe27268b6" y="107.596891"/>
     <use style="stroke:#000000;" x="246.763636" xlink:href="#mafe27268b6" y="65.241108"/>
     <use style="stroke:#000000;" x="259.445455" xlink:href="#mafe27268b6" y="277.02"/>
     <use style="stroke:#000000;" x="259.445455" xlink:href="#mafe27268b6" y="234.664224"/>
     <use style="stroke:#000000;" x="259.445455" xlink:href="#mafe27268b6" y="192.308447"/>
     <use style="stroke:#000000;" x="259.445455" xlink:href="#mafe27268b6" y="149.952671"/>
     <use style="stroke:#000000;" x="259.445455" xlink:href="#mafe27268b6" y="107.596894"/>
     <use style="stroke:#000000;" x="259.445455" xlink:href="#mafe27268b6" y="65.241117"/>
     <use style="stroke:#000000;" x="272.127273" xlink:href="#mafe27268b6" y="277.02"/>
     <use style="stroke:#000000;" x="272.127273" xlink:href="#mafe27268b6" y="234.664224"/>
     <use style="stroke:#000000;" x="272.127273" xlink:href="#mafe27268b6" y="192.308447"/>
     <use style="stroke:#000000;" x="272.127273" xlink:href="#mafe27268b6" y="149.952671"/>
     <use style="stroke:#000000;" x="272.127273" xlink:href="#mafe27268b6" y="107.596894"/>
     <use style="stroke:#000000;" x="272.127273" xlink:href="#mafe27268b6" y="65.241118"/>
     <use style="stroke:#000000;" x="284.809091" xlink:href="#mafe27268b6" y="277.02"/>
     <use style="stroke:#000000;" x="284.809091" xlink:href="#mafe27268b6" y="234.664224"/>
     <use style="stroke:#000000;" x="284.809091" xlink:href="#mafe27268b6" y="192.308447"/>
     <use style="stroke:#000000;" x="284.809091" xlink:href="#mafe27268b6" y="149.952671"/>
     <use style="stroke:#000000;" x="284.809091" xlink:href="#mafe27268b6" y="107.596894"/>
     <use style="stroke:#000000;" x="284.809091" xlink:href="#mafe27268b6" y="65.241118"/>
     <use style="stroke:#000000;" x="297.490909" xlink:href="#mafe27268b6" y="277.02"/>
     <use style="stroke:#000000;" x="297.490909" xlink:href="#mafe27268b6" y="234.664224"/>
     <use style="stroke:#000000;" x="297.490909" xlink:href="#mafe27268b6" y="192.308447"/>
     <use style="stroke:#000000;" x="297.490909" xlink:href="#mafe27268b6" y="149.952671"/>
     <use style="stroke:#000000;" x="297.490909" xlink:href="#mafe27268b6" y="107.596894"/>
     <use style="stroke:#000000;" x="297.490909" xlink:href="#mafe27268b6" y="65.241118"/>
     <use style="stroke:#000000;" x="310.172727" xlink:href="#mafe27268b6" y="277.02"/>
     <use style="stroke:#000000;" x="310.172727" xlink:href="#mafe27268b6" y="234.664224"/>
     <use style="stroke:#000000;" x="310.172727" xlink:href="#mafe27268b6" y="192.308447"/>
     <use style="stroke:#000000;" x="310.172727" xlink:href="#mafe27268b6" y="149.952671"/>
     <use style="stroke:#000000;" x="310.172727" xlink:href="#mafe27268b6" y="107.596894"/>
     <use style="stroke:#000000;" x="310.172727" xlink:href="#mafe27268b6" y="65.241118"/>
     <use style="stroke:#000000;" x="322.854545" xlink:href="#mafe27268b6" y="277.02"/>
     <use style="stroke:#000000;" x="322.854545" xlink:href="#mafe27268b6" y="234.664224"/>
     <use style="stroke:#000000;" x="322.854545" xlink:href="#mafe27268b6" y="192.308447"/>
     <use style="stroke:#000000;" x="322.854545" xlink:href="#mafe27268b6" y="149.952671"/>
     <use style="stroke:#000000;" x="322.854545" xlink:href="#mafe27268b6" y="107.596894"/>
     <use style="stroke:#000000;" x="322.854545" xlink:href="#mafe27268b6" y="65.241118"/>
     <use style="stroke:#000000;" x="335.536364" xlink:href="#mafe27268b6" y="277.02"/>
     <use style="stroke:#000000;" x="335.536364" xlink:href="#mafe27268b6" y="234.664224"/>
     <use style="stroke:#000000;" x="335.536364" xlink:href="#mafe27268b6" y="192.308447"/>
     <use style="stroke:#000000;" x="335.536364" xlink:href="#mafe27268b6" y="149.952671"/>
     <use style="stroke:#000000;" x="335.536364" xlink:href="#mafe27268b6" y="107.596894"/>
     <use style="stroke:#000000;" x="335.536364" xlink:href="#mafe27268b6" y="65.241118"/>
     <use style="stroke:#000000;" x="348.218182" xlink:href="#mafe27268b6" y="277.02"/>
     <use style="stroke:#000000;" x="348.218182" xlink:href="#mafe27268b6" y="234.664224"/>
     <use style="stroke:#000000;" x="348.218182" xlink:href="#mafe27268b6" y="192.308447"/>
     <use style="stroke:#000000;" x="348.218182" xlink:href="#mafe27268b6" y="149.952671"/>
     <use style="stroke:#000000;" x="348.218182" xlink:href="#mafe27268b6" y="107.596894"/>
     <use style="stroke:#000000;" x="348.218182" xlink:href="#mafe27268b6" y="65.241118"/>
     <use style="stroke:#000000;" x="360.9" xlink:href="#mafe27268b6" y="277.02"/>
     <use style="stroke:#000000;" x="360.9" xlink:href="#mafe27268b6" y="234.664224"/>
     <use style="stroke:#000000;" x="360.9" xlink:href="#mafe27268b6" y="192.308447"/>
     <use style="stroke:#000000;" x="360.9" xlink:href="#mafe27268b6" y="149.952671"/>
     <use style="stroke:#000000;" x="360.9" xlink:href="#mafe27268b6" y="107.596894"/>
     <use style="stroke:#000000;" x="360.9" xlink:href="#mafe27268b6" y="65.241118"/>
     <use style="stroke:#000000;" x="373.581818" xlink:href="#mafe27268b6" y="277.02"/>
     <use style="stroke:#000000;" x="373.581818" xlink:href="#mafe27268b6" y="234.664224"/>
     <use style="stroke:#000000;" x="373.581818" xlink:href="#mafe27268b6" y="192.308447"/>
     <use style="stroke:#000000;" x="373.581818" xlink:href="#mafe27268b6" y="149.952671"/>
     <use style="stroke:#000000;" x="373.581818" xlink:href="#mafe27268b6" y="107.596894"/>
     <use style="stroke:#000000;" x="373.581818" xlink:href="#mafe27268b6" y="65.241118"/>
    </g>
   </g>
   <g id="patch_3">
    <path d="M 54 288.36 
L 54 38.88 
" style="fill:none;stroke:#000000;stroke-linecap:square;stroke-linejoin:miter;stroke-width:0.8;"/>
   </g>
   <g id="patch_4">
    <path d="M 388.8 288.36 
L 388.8 38.88 
" style="fill:none;stroke:#000000;stroke-linecap:square;stroke-linejoin:miter;stroke-width:0.8;"/>
   </g>
   <g id="patch_5">
    <path d="M 54 288.36 
L 388.8 288.36 
" style="fill:none;stroke:#000000;stroke-linecap:square;stroke-linejoin:miter;stroke-width:0.8;"/>
   </g>
   <g id="patch_6">
    <path d="M 54 38.88 
L 388.8 38.88 
" style="fill:none;stroke:#000000;stroke-linecap:square;stroke-linejoin:miter;stroke-width:0.8;"/>
   </g>
   <g id="text_15">
    <!-- B_0 = 1.0, flux = 6.293185307179586, R_0 = 1.0 -->
    <g transform="translate(22.365 32.88)scale(0.16 -0.16)">
     <defs>
      <path d="M 19.671875 34.8125 
L 19.671875 8.109375 
L 35.5 8.109375 
Q 43.453125 8.109375 47.28125 11.40625 
Q 51.125 14.703125 51.125 21.484375 
Q 51.125 28.328125 47.28125 31.5625 
Q 43.453125 34.8125 35.5 34.8125 
z
M 19.671875 64.796875 
L 19.671875 42.828125 
L 34.28125 42.828125 
Q 41.5 42.828125 45.03125 45.53125 
Q 48.578125 48.25 48.578125 53.8125 
Q 48.578125 59.328125 45.03125 62.0625 
Q 41.5 64.796875 34.28125 64.796875 
z
M 9.8125 72.90625 
L 35.015625 72.90625 
Q 46.296875 72.90625 52.390625 68.21875 
Q 58.5 63.53125 58.5 54.890625 
Q 58.5 48.1875 55.375 44.234375 
Q 52.25 40.28125 46.1875 39.3125 
Q 53.46875 37.75 57.5 32.78125 
Q 61.53125 27.828125 61.53125 20.40625 
Q 61.53125 10.640625 54.890625 5.3125 
Q 48.25 0 35.984375 0 
L 9.8125 0 
z
" id="DejaVuSans-66"/>
      <path d="M 50.984375 -16.609375 
L 50.984375 -23.578125 
L -0.984375 -23.578125 
L -0.984375 -16.609375 
z
" id="DejaVuSans-95"/>
      <path id="DejaVuSans-32"/>
      <path d="M 10.59375 45.40625 
L 73.1875 45.40625 
L 73.1875 37.203125 
L 10.59375 37.203125 
z
M 10.59375 25.484375 
L 73.1875 25.484375 
L 73.1875 17.1875 
L 10.59375 17.1875 
z
" id="DejaVuSans-61"/>
      <path d="M 10.6875 12.40625 
L 21 12.40625 
L 21 0 
L 10.6875 0 
z
" id="DejaVuSans-46"/>
      <path d="M 11.71875 12.40625 
L 22.015625 12.40625 
L 22.015625 4 
L 14.015625 -11.625 
L 7.71875 -11.625 
L 11.71875 4 
z
" id="DejaVuSans-44"/>
      <path d="M 37.109375 75.984375 
L 37.109375 68.5 
L 28.515625 68.5 
Q 23.6875 68.5 21.796875 66.546875 
Q 19.921875 64.59375 19.921875 59.515625 
L 19.921875 54.6875 
L 34.71875 54.6875 
L 34.71875 47.703125 
L 19.921875 47.703125 
L 19.921875 0 
L 10.890625 0 
L 10.890625 47.703125 
L 2.296875 47.703125 
L 2.296875 54.6875 
L 10.890625 54.6875 
L 10.890625 58.5 
Q 10.890625 67.625 15.140625 71.796875 
Q 19.390625 75.984375 28.609375 75.984375 
z
" id="DejaVuSans-102"/>
      <path d="M 9.421875 75.984375 
L 18.40625 75.984375 
L 18.40625 0 
L 9.421875 0 
z
" id="DejaVuSans-108"/>
      <path d="M 8.5 21.578125 
L 8.5 54.6875 
L 17.484375 54.6875 
L 17.484375 21.921875 
Q 17.484375 14.15625 20.5 10.265625 
Q 23.53125 6.390625 29.59375 6.390625 
Q 36.859375 6.390625 41.078125 11.03125 
Q 45.3125 15.671875 45.3125 23.6875 
L 45.3125 54.6875 
L 54.296875 54.6875 
L 54.296875 0 
L 45.3125 0 
L 45.3125 8.40625 
Q 42.046875 3.421875 37.71875 1 
Q 33.40625 -1.421875 27.6875 -1.421875 
Q 18.265625 -1.421875 13.375 4.4375 
Q 8.5 10.296875 8.5 21.578125 
z
M 31.109375 56 
z
" id="DejaVuSans-117"/>
      <path d="M 54.890625 54.6875 
L 35.109375 28.078125 
L 55.90625 0 
L 45.3125 0 
L 29.390625 21.484375 
L 13.484375 0 
L 2.875 0 
L 24.125 28.609375 
L 4.6875 54.6875 
L 15.28125 54.6875 
L 29.78125 35.203125 
L 44.28125 54.6875 
z
" id="DejaVuSans-120"/>
      <path d="M 10.984375 1.515625 
L 10.984375 10.5 
Q 14.703125 8.734375 18.5 7.8125 
Q 22.3125 6.890625 25.984375 6.890625 
Q 35.75 6.890625 40.890625 13.453125 
Q 46.046875 20.015625 46.78125 33.40625 
Q 43.953125 29.203125 39.59375 26.953125 
Q 35.25 24.703125 29.984375 24.703125 
Q 19.046875 24.703125 12.671875 31.3125 
Q 6.296875 37.9375 6.296875 49.421875 
Q 6.296875 60.640625 12.9375 67.421875 
Q 19.578125 74.21875 30.609375 74.21875 
Q 43.265625 74.21875 49.921875 64.515625 
Q 56.59375 54.828125 56.59375 36.375 
Q 56.59375 19.140625 48.40625 8.859375 
Q 40.234375 -1.421875 26.421875 -1.421875 
Q 22.703125 -1.421875 18.890625 -0.6875 
Q 15.09375 0.046875 10.984375 1.515625 
z
M 30.609375 32.421875 
Q 37.25 32.421875 41.125 36.953125 
Q 45.015625 41.5 45.015625 49.421875 
Q 45.015625 57.28125 41.125 61.84375 
Q 37.25 66.40625 30.609375 66.40625 
Q 23.96875 66.40625 20.09375 61.84375 
Q 16.21875 57.28125 16.21875 49.421875 
Q 16.21875 41.5 20.09375 36.953125 
Q 23.96875 32.421875 30.609375 32.421875 
z
" id="DejaVuSans-57"/>
      <path d="M 31.78125 34.625 
Q 24.75 34.625 20.71875 30.859375 
Q 16.703125 27.09375 16.703125 20.515625 
Q 16.703125 13.921875 20.71875 10.15625 
Q 24.75 6.390625 31.78125 6.390625 
Q 38.8125 6.390625 42.859375 10.171875 
Q 46.921875 13.96875 46.921875 20.515625 
Q 46.921875 27.09375 42.890625 30.859375 
Q 38.875 34.625 31.78125 34.625 
z
M 21.921875 38.8125 
Q 15.578125 40.375 12.03125 44.71875 
Q 8.5 49.078125 8.5 55.328125 
Q 8.5 64.0625 14.71875 69.140625 
Q 20.953125 74.21875 31.78125 74.21875 
Q 42.671875 74.21875 48.875 69.140625 
Q 55.078125 64.0625 55.078125 55.328125 
Q 55.078125 49.078125 51.53125 44.71875 
Q 48 40.375 41.703125 38.8125 
Q 48.828125 37.15625 52.796875 32.3125 
Q 56.78125 27.484375 56.78125 20.515625 
Q 56.78125 9.90625 50.3125 4.234375 
Q 43.84375 -1.421875 31.78125 -1.421875 
Q 19.734375 -1.421875 13.25 4.234375 
Q 6.78125 9.90625 6.78125 20.515625 
Q 6.78125 27.484375 10.78125 32.3125 
Q 14.796875 37.15625 21.921875 38.8125 
z
M 18.3125 54.390625 
Q 18.3125 48.734375 21.84375 45.5625 
Q 25.390625 42.390625 31.78125 42.390625 
Q 38.140625 42.390625 41.71875 45.5625 
Q 45.3125 48.734375 45.3125 54.390625 
Q 45.3125 60.0625 41.71875 63.234375 
Q 38.140625 66.40625 31.78125 66.40625 
Q 25.390625 66.40625 21.84375 63.234375 
Q 18.3125 60.0625 18.3125 54.390625 
z
" id="DejaVuSans-56"/>
      <path d="M 8.203125 72.90625 
L 55.078125 72.90625 
L 55.078125 68.703125 
L 28.609375 0 
L 18.3125 0 
L 43.21875 64.59375 
L 8.203125 64.59375 
z
" id="DejaVuSans-55"/>
      <path d="M 44.390625 34.1875 
Q 47.5625 33.109375 50.5625 29.59375 
Q 53.5625 26.078125 56.59375 19.921875 
L 66.609375 0 
L 56 0 
L 46.6875 18.703125 
Q 43.0625 26.03125 39.671875 28.421875 
Q 36.28125 30.8125 30.421875 30.8125 
L 19.671875 30.8125 
L 19.671875 0 
L 9.8125 0 
L 9.8125 72.90625 
L 32.078125 72.90625 
Q 44.578125 72.90625 50.734375 67.671875 
Q 56.890625 62.453125 56.890625 51.90625 
Q 56.890625 45.015625 53.6875 40.46875 
Q 50.484375 35.9375 44.390625 34.1875 
z
M 19.671875 64.796875 
L 19.671875 38.921875 
L 32.078125 38.921875 
Q 39.203125 38.921875 42.84375 42.21875 
Q 46.484375 45.515625 46.484375 51.90625 
Q 46.484375 58.296875 42.84375 61.546875 
Q 39.203125 64.796875 32.078125 64.796875 
z
" id="DejaVuSans-82"/>
     </defs>
     <use xlink:href="#DejaVuSans-66"/>
     <use x="68.603516" xlink:href="#DejaVuSans-95"/>
     <use x="118.603516" xlink:href="#DejaVuSans-48"/>
     <use x="182.226562" xlink:href="#DejaVuSans-32"/>
     <use x="214.013672" xlink:href="#DejaVuSans-61"/>
     <use x="297.802734" xlink:href="#DejaVuSans-32"/>
     <use x="329.589844" xlink:href="#DejaVuSans-49"/>
     <use x="393.212891" xlink:href="#DejaVuSans-46"/>
     <use x="425" xlink:href="#DejaVuSans-48"/>
     <use x="488.623047" xlink:href="#DejaVuSans-44"/>
     <use x="520.410156" xlink:href="#DejaVuSans-32"/>
     <use x="552.197266" xlink:href="#DejaVuSans-102"/>
     <use x="587.402344" xlink:href="#DejaVuSans-108"/>
     <use x="615.185547" xlink:href="#DejaVuSans-117"/>
     <use x="678.564453" xlink:href="#DejaVuSans-120"/>
     <use x="737.744141" xlink:href="#DejaVuSans-32"/>
     <use x="769.53125" xlink:href="#DejaVuSans-61"/>
     <use x="853.320312" xlink:href="#DejaVuSans-32"/>
     <use x="885.107422" xlink:href="#DejaVuSans-54"/>
     <use x="948.730469" xlink:href="#DejaVuSans-46"/>
     <use x="980.517578" xlink:href="#DejaVuSans-50"/>
     <use x="1044.140625" xlink:href="#DejaVuSans-57"/>
     <use x="1107.763672" xlink:href="#DejaVuSans-51"/>
     <use x="1171.386719" xlink:href="#DejaVuSans-49"/>
     <use x="1235.009766" xlink:href="#DejaVuSans-56"/>
     <use x="1298.632812" xlink:href="#DejaVuSans-53"/>
     <use x="1362.255859" xlink:href="#DejaVuSans-51"/>
     <use x="1425.878906" xlink:href="#DejaVuSans-48"/>
     <use x="1489.501953" xlink:href="#DejaVuSans-55"/>
     <use x="1553.125" xlink:href="#DejaVuSans-49"/>
     <use x="1616.748047" xlink:href="#DejaVuSans-55"/>
     <use x="1680.371094" xlink:href="#DejaVuSans-57"/>
     <use x="1743.994141" xlink:href="#DejaVuSans-53"/>
     <use x="1807.617188" xlink:href="#DejaVuSans-56"/>
     <use x="1871.240234" xlink:href="#DejaVuSans-54"/>
     <use x="1934.863281" xlink:href="#DejaVuSans-44"/>
     <use x="1966.650391" xlink:href="#DejaVuSans-32"/>
     <use x="1998.4375" xlink:href="#DejaVuSans-82"/>
     <use x="2067.919922" xlink:href="#DejaVuSans-95"/>
     <use x="2117.919922" xlink:href="#DejaVuSans-48"/>
     <use x="2181.542969" xlink:href="#DejaVuSans-32"/>
     <use x="2213.330078" xlink:href="#DejaVuSans-61"/>
     <use x="2297.119141" xlink:href="#DejaVuSans-32"/>
     <use x="2328.90625" xlink:href="#DejaVuSans-49"/>
     <use x="2392.529297" xlink:href="#DejaVuSans-46"/>
     <use x="2424.316406" xlink:href="#DejaVuSans-48"/>
    </g>
   </g>
  </g>
 </g>
 <defs>
  <clipPath id="p92b6731451">
   <rect height="249.48" width="334.8" x="54" y="38.88"/>
  </clipPath>
 </defs>
</svg>
